<svg width="287" height="447" viewBox="0 0 287 447" fill="none" xmlns="http://www.w3.org/2000/svg">
<rect x="116" y="325" width="47" height="122" fill="#893535"/>
<path d="M139 49L262.842 371.5H15.1584L139 49Z" fill="#008000"/>
<path d="M140.5 0L150.266 35.2401L181.871 35.2401L156.302 57.0197L166.069 92.2599L140.5 70.4803L114.931 92.2599L124.698 57.0197L99.129 35.2401L130.734 35.2401L140.5 0Z" fill="#FFD700"/>
<path d="M78 226L155.942 342.25H0.0577164L78 226Z" fill="#008000"/>
<path d="M85.5 195L163.009 276.75H7.99072L85.5 195Z" fill="#008000"/>
<path d="M113.5 121L191.009 228.25H35.9907L113.5 121Z" fill="#008000"/>
<path d="M121 92L151.311 137.75H90.6891L121 92Z" fill="#008000"/>
<path d="M206 235L286.54 348.25H125.46L206 235Z" fill="#008000"/>
<path d="M202.5 170L261.823 290H143.177L202.5 170Z" fill="#008000"/>
<path d="M169 122L240.88 200H97.1199L169 122Z" fill="#008000"/>
<path d="M156 90L195.837 137.25H116.163L156 90Z" fill="#008000"/>
<rect x="108.623" y="109.613" width="42" height="20" transform="rotate(25.0561 108.623 109.613)" fill="#C4C4C4"/>
<rect x="190.016" y="180.862" width="42" height="20" transform="rotate(137.654 190.016 180.862)" fill="#C4C4C4"/>
<rect x="77.9597" y="178.423" width="42" height="20" transform="rotate(46.5917 77.9597 178.423)" fill="#C4C4C4"/>
<rect x="221.648" y="299.702" width="42" height="20" transform="rotate(146.165 221.648 299.702)" fill="#C4C4C4"/>
<rect x="81.7599" y="274.479" width="42" height="20" transform="rotate(72.2315 81.7599 274.479)" fill="#C4C4C4"/>
<rect x="227.58" y="215.001" width="42" height="20" transform="rotate(144.375 227.58 215.001)" fill="#C4C4C4"/>
<rect x="113.329" y="118.437" width="26" height="6" transform="rotate(25.0561 113.329 118.437)" fill="white"/>
<rect x="180.062" y="181.817" width="26" height="6" transform="rotate(137.654 180.062 181.817)" fill="white"/>
<rect x="79.0983" y="188.358" width="26" height="6" transform="rotate(46.5917 79.0983 188.358)" fill="white"/>
<rect x="211.662" y="299.172" width="26" height="6" transform="rotate(146.165 211.662 299.172)" fill="white"/>
<rect x="78.4875" y="283.929" width="26" height="6" transform="rotate(72.2315 78.4875 283.929)" fill="white"/>
<rect x="217.583" y="214.784" width="26" height="6" transform="rotate(144.375 217.583 214.784)" fill="white"/>
<rect x="139.542" y="128.483" width="13" height="10" transform="rotate(25.0561 139.542 128.483)" fill="#C4C4C4"/>
<rect x="160.714" y="202.156" width="13" height="10" transform="rotate(137.654 160.714 202.156)" fill="#C4C4C4"/>
<rect x="99.7927" y="207.325" width="13" height="10" transform="rotate(46.5917 99.7927 207.325)" fill="#C4C4C4"/>
<rect x="189.518" y="316.424" width="13" height="10" transform="rotate(146.165 189.518 316.424)" fill="#C4C4C4"/>
<rect x="88.9368" y="309.983" width="13" height="10" transform="rotate(72.2315 88.9368 309.983)" fill="#C4C4C4"/>
<rect x="195.988" y="232.719" width="13" height="10" transform="rotate(144.375 195.988 232.719)" fill="#C4C4C4"/>
<path d="M145.577 136.824L170.942 148.682" stroke="#C4C4C4"/>
<path d="M150.695 204.523L130 223.384" stroke="#C4C4C4"/>
<path d="M102.345 217.299L121.586 237.64" stroke="#C4C4C4"/>
<path d="M179.258 317.282L156 332.872" stroke="#C4C4C4"/>
<path d="M86.9219 320.079L95.4667 346.744" stroke="#C4C4C4"/>
<path d="M185.76 233.897L163 250.206" stroke="#C4C4C4"/>
<rect x="93.4587" y="111.355" width="19" height="4" transform="rotate(25.0561 93.4587 111.355)" fill="#C4C4C4"/>
<rect x="194.235" y="166.193" width="19" height="4" transform="rotate(137.654 194.235 166.193)" fill="#C4C4C4"/>
<rect x="63.2144" y="174.476" width="19" height="4" transform="rotate(46.5917 63.2144 174.476)" fill="#C4C4C4"/>
<rect x="227.992" y="285.818" width="19" height="4" transform="rotate(146.165 227.992 285.818)" fill="#C4C4C4"/>
<rect x="70.1743" y="264.541" width="19" height="4" transform="rotate(72.2315 70.1743 264.541)" fill="#C4C4C4"/>
<rect x="233.487" y="200.926" width="19" height="4" transform="rotate(144.375 233.487 200.926)" fill="#C4C4C4"/>
<rect x="85.5206" y="100" width="12" height="18" rx="6" transform="rotate(24.6963 85.5206 100)" fill="#C4C4C4"/>
<rect x="207.769" y="163.227" width="12" height="18" rx="6" transform="rotate(137.294 207.769 163.227)" fill="#C4C4C4"/>
<rect x="59.9986" y="161" width="12" height="18" rx="6" transform="rotate(46.2319 59.9986 161)" fill="#C4C4C4"/>
<rect x="241.816" y="284.888" width="12" height="18" rx="6" transform="rotate(145.806 241.816 284.888)" fill="#C4C4C4"/>
<rect x="73.1065" y="251" width="12" height="18" rx="6" transform="rotate(71.8718 73.1065 251)" fill="#C4C4C4"/>
<rect x="247.275" y="199.565" width="12" height="18" rx="6" transform="rotate(144.015 247.275 199.565)" fill="#C4C4C4"/>
</svg>
